<svg xmlns="http://www.w3.org/2000/svg" viewBox="0 0 32 32">
  <path fill="#6B21A8" d="M16 4c-4.42 0-8 3.58-8 8 0 1.4.39 2.7 1.06 3.82C7.13 16.92 6 18.83 6 21c0 3.31 2.69 6 6 6 .41 0 .81-.04 1.2-.12C14.15 27.53 15.5 28 17 28c3.87 0 7-3.13 7-7 0-.52-.06-1.02-.17-1.5 1.28-1.06 2.17-2.65 2.17-4.5 0-3.31-2.69-6-6-6-.52 0-1.02.06-1.5.17C17.45 6.45 15.5 4 13 4z"/>
  <path fill="#FFFFFF" opacity="0.4" d="M13 10c-1.66 0-3 1.34-3 3s1.34 3 3 3 3-1.34 3-3-1.34-3-3-3zm6 6c-1.1 0-2 .9-2 2s.9 2 2 2 2-.9 2-2-.9-2-2-2z"/>
</svg>
